<?xml version="1.0" encoding="utf-8"?>
<!-- Generator: Adobe Illustrator 27.1.1, SVG Export Plug-In . SVG Version: 6.00 Build 0)  -->
<svg version="1.1" id="Layer_1" xmlns="http://www.w3.org/2000/svg" xmlns:xlink="http://www.w3.org/1999/xlink" x="0px" y="0px"
	 viewBox="0 0 152 42" style="enable-background:new 0 0 152 42;" xml:space="preserve">
<style type="text/css">
	.st0{fill:#1A4AB9;}
	.st1{fill:#00B868;}
</style>
<g>
	<g>
		<path class="st0" d="M1,1v0.3c0,2.3,1.8,4.1,4.1,4.1h25.7c1.4,0,2.5,1.1,2.5,2.5v1.8c0,1.4-1.2,2.6-2.6,2.6H12.2
			c-0.1,0-0.1,0-0.1,0.1v0.1c0,2.4,1.9,4.3,4.3,4.3h2.3c0.1,0,0.1,0,0.1,0.1v6.6c0,0.1,0,0.1,0.1,0.1h5.6c0.1,0,0.1,0,0.1-0.1v-6.6
			c0-0.1,0-0.1,0.1-0.1h4.4c0,0,0.1,0,0.1,0.1l3.7,6.7l0.1,0.1h6.1c0.1,0,0.1-0.1,0.1-0.2l-3.8-6.8c0-0.1,0-0.2,0.1-0.2l0,0
			c2,0,3.7-1.6,3.7-3.7V4.6c0-2-1.6-3.7-3.7-3.7h-32L1,1C1,0.9,1,0.9,1,1z"/>
		<g>
			<path class="st0" d="M46.8,23.3h-6.3l8.6-22.5h6.4L64,23.3h-6.3l-1.4-4h-8L46.8,23.3z M49.7,15.1h5.1l-2.6-7.5L49.7,15.1z"/>
			<path class="st0" d="M65.6,0.9h13.5c2.2,0,3.9,0.5,4.9,1.5s1.5,2.6,1.5,4.9v3.2c0,2.2-0.5,3.9-1.5,4.9s-2.6,1.5-4.9,1.5h-7.7v6.4
				h-5.8V0.9z M79.7,7.3c0-1.3-0.6-1.9-1.9-1.9h-6.4v7.1h6.4c1.3,0,1.9-0.6,1.9-1.9V7.3z"/>
			<path class="st0" d="M99.3,23.3h-5.8v-18h-6.7V0.9H106v4.5h-6.7V23.3z"/>
		</g>
		<g>
			<path class="st0" d="M127.7,6.3l-10.1-5.4l-9.7,5.4v11.6l9.8,5.7l10-5.8L127.7,6.3z M123.3,12.4c-0.2,3.1-2.8,5.5-6,5.3
				c-3.1-0.2-5.5-2.8-5.3-6c0.2-3.1,2.8-5.5,6-5.3C121.1,6.7,123.5,9.3,123.3,12.4z"/>
			
				<rect x="114.4" y="10" transform="matrix(0.7071 -0.7071 0.7071 0.7071 26.1819 86.6814)" class="st1" width="6.7" height="3.4"/>
		</g>
		<g>
			<path class="st0" d="M130.8,0.9h13.5c2.2,0,3.9,0.5,4.9,1.5s1.5,2.6,1.5,4.9v2.9c0,1.8-0.3,3.2-0.9,4.1c-0.6,1-1.5,1.6-2.8,2l4,7
				h-6.2l-3.7-6.7h-4.5v6.7h-5.8V0.9z M144.9,7.3c0-1.3-0.6-1.9-1.9-1.9h-6.4V12h6.4c1.3,0,1.9-0.6,1.9-1.9V7.3z"/>
		</g>
	</g>
	<g>
		<path class="st0" d="M84.5,38.8l1.3-0.6c0.1,0.5,0.4,0.8,0.7,1c0.3,0.2,0.8,0.4,1.3,0.4c0.5,0,0.9-0.1,1.2-0.4
			c0.3-0.3,0.4-0.6,0.4-1.1c0-0.6-0.5-1.1-1.5-1.6c-0.1-0.1-0.2-0.1-0.3-0.2c-1.1-0.6-1.9-1.1-2.3-1.5c-0.4-0.4-0.6-1-0.6-1.6
			c0-0.8,0.3-1.5,0.9-2c0.6-0.5,1.3-0.8,2.2-0.8c0.8,0,1.4,0.1,1.9,0.4c0.5,0.3,0.9,0.7,1.1,1.3l-1.3,0.7c-0.2-0.3-0.4-0.6-0.7-0.7
			c-0.2-0.1-0.5-0.2-0.8-0.2c-0.4,0-0.8,0.1-1.1,0.4c-0.3,0.2-0.4,0.5-0.4,0.9c0,0.6,0.6,1.2,1.7,1.7c0.1,0,0.2,0.1,0.2,0.1
			c1,0.5,1.7,0.9,2.1,1.4c0.4,0.4,0.6,1,0.6,1.7c0,1-0.3,1.7-0.9,2.3c-0.6,0.6-1.4,0.9-2.5,0.9c-0.9,0-1.6-0.2-2.1-0.6
			C85,40.1,84.7,39.6,84.5,38.8z"/>
		<path class="st0" d="M94,30.6h1.6v6.2c0,0.9,0.2,1.6,0.6,2.1c0.4,0.5,1.1,0.7,1.9,0.7c0.8,0,1.5-0.2,1.9-0.7
			c0.4-0.5,0.6-1.2,0.6-2.1v-6.2h1.7V37c0,1.4-0.4,2.4-1.1,3.1c-0.7,0.7-1.8,1-3.2,1c-1.4,0-2.5-0.3-3.2-1c-0.7-0.7-1-1.7-1-3.1
			V30.6z"/>
		<path class="st0" d="M107.4,36.3v4.6h-1.6V30.6h2.5c0.7,0,1.3,0,1.7,0.1c0.4,0.1,0.7,0.2,0.9,0.4c0.3,0.2,0.6,0.6,0.8,1
			c0.2,0.4,0.3,0.8,0.3,1.3c0,0.5-0.1,0.9-0.3,1.3c-0.2,0.4-0.4,0.7-0.8,1c-0.3,0.2-0.6,0.3-0.9,0.4c-0.4,0.1-0.9,0.1-1.7,0.1H108
			H107.4z M107.5,34.9h0.4c0.9,0,1.5-0.1,1.9-0.3c0.3-0.2,0.5-0.6,0.5-1.1c0-0.5-0.2-0.9-0.5-1.2s-0.9-0.3-1.8-0.3h-0.4V34.9z"/>
		<path class="st0" d="M116.1,36.3v4.6h-1.6V30.6h2.5c0.7,0,1.3,0,1.7,0.1c0.4,0.1,0.7,0.2,0.9,0.4c0.3,0.2,0.6,0.6,0.8,1
			c0.2,0.4,0.3,0.8,0.3,1.3c0,0.5-0.1,0.9-0.3,1.3c-0.2,0.4-0.4,0.7-0.8,1c-0.3,0.2-0.6,0.3-0.9,0.4c-0.4,0.1-0.9,0.1-1.7,0.1h-0.3
			H116.1z M116.2,34.9h0.4c0.9,0,1.5-0.1,1.9-0.3c0.3-0.2,0.5-0.6,0.5-1.1c0-0.5-0.2-0.9-0.5-1.2s-0.9-0.3-1.8-0.3h-0.4V34.9z"/>
		<path class="st0" d="M123.2,40.9V30.6h1.7v8.8h3.7v1.5H123.2z"/>
		<path class="st0" d="M131.1,40.9V30.6h1.7v10.3H131.1z"/>
		<path class="st0" d="M136.2,40.9V30.6h5.7V32h-4.1v2.6h4.1v1.5h-4.1v3.3h4.1v1.5H136.2z"/>
		<path class="st0" d="M144.4,38.8l1.3-0.6c0.1,0.5,0.4,0.8,0.7,1c0.3,0.2,0.8,0.4,1.3,0.4c0.5,0,0.9-0.1,1.2-0.4
			c0.3-0.3,0.4-0.6,0.4-1.1c0-0.6-0.5-1.1-1.5-1.6c-0.1-0.1-0.2-0.1-0.3-0.2c-1.1-0.6-1.9-1.1-2.3-1.5c-0.4-0.4-0.6-1-0.6-1.6
			c0-0.8,0.3-1.5,0.9-2c0.6-0.5,1.3-0.8,2.2-0.8c0.8,0,1.4,0.1,1.9,0.4c0.5,0.3,0.9,0.7,1.1,1.3l-1.3,0.7c-0.2-0.3-0.4-0.6-0.7-0.7
			c-0.2-0.1-0.5-0.2-0.8-0.2c-0.4,0-0.8,0.1-1.1,0.4c-0.3,0.2-0.4,0.5-0.4,0.9c0,0.6,0.6,1.2,1.7,1.7c0.1,0,0.2,0.1,0.2,0.1
			c1,0.5,1.7,0.9,2.1,1.4c0.4,0.4,0.6,1,0.6,1.7c0,1-0.3,1.7-0.9,2.3c-0.6,0.6-1.4,0.9-2.5,0.9c-0.9,0-1.6-0.2-2.1-0.6
			C144.9,40.1,144.5,39.6,144.4,38.8z"/>
	</g>
</g>
</svg>
